<svg xmlns="http://www.w3.org/2000/svg" viewBox="0 0 696.66 758.57"><title>door3</title><path id = "batman-path" d="M960,106H290V864.57h26.66V647h15.87V864.57H632.46V146.14H332.53V284H316.66V129.57H960V284H945.75V146.14H648.94V864.57H945.75V647H960V864.57h26.66V106ZM580.33,472.59c5.48,0,9.92,5.89,9.92,13.15s-4.44,13.15-9.92,13.15-9.91-5.89-9.91-13.15S574.86,472.59,580.33,472.59ZM332.53,328V603H316.66V328Zm373,170.89c-5.48,0-9.92-5.89-9.92-13.15s4.44-13.15,9.92-13.15,9.91,5.89,9.91,13.15S711" transform="translate(-290 -106)"/></svg>