<svg xmlns="http://www.w3.org/2000/svg" viewBox="0 0 696.66 855"><title>door4</title><path d="M962,133H840.36l-83.87-31v31H527V102l-83.87,31H292V891.57h26.66V674h15.87V891.57L527,957V156.57H756.49V957L949,891.57V674h13V891.57h26.66V133ZM318.66,630V355h15.87V630ZM501,524.43c-5.48,0-9.92-5.88-9.92-13.15s4.44-13.14,9.92-13.14,9.91,5.88,9.91,13.14S506.42,524.43,501,524.43ZM334.53,173.14V311H318.66V156.57h60.7ZM768.64,511.28c0-7.26,4.44-13.14,9.92-13.14s9.91,5.88,9.91,13.14-4.44,13.15-9.91,13.15S768.64,518.55,768.64,511.28ZM962,630H949V355h13Zm0-319H949V173.14l-44.83-16.57H962Z" transform="translate(-292 -102)"/></svg>