<svg xmlns="http://www.w3.org/2000/svg" viewBox="0 0 537.06 886.76"><title>key1</title><path d="M958.5,203.48c0-10.89-6-18.15-11.84-25.16-1.64-2-3.28-4-4.88-6.18-3.71-4.85-9.14-12-12.28-16.51l1.56.39c3.94,1,8.36,2.12,12.32,2.12,6.57,0,11.39-3.08,11.39-7.3,0-4.82-5.6-6.81-18-9.91,2.32-.46,5-1,8.26-1.57,8.21-1.45,11.1-6,11.1-9.72,0-7.12-9.37-12.08-18.43-8.09-20.85,9.11-33.42,9.84-40.92,10.29a32.87,32.87,0,0,0-7.94,1,9.56,9.56,0,0,0-6.55,9.17c0,7.85,6.43,7.85,17.74,7.82,0,0,2.88.92,9,9.61,1.56,2.19,3,4.48,4.15,6.41-12.55-4.74-62-18.77-97-18.77-27.77,0-27.77,6-27.77,8.56,0,4.09,4.1,5.64,11.66,7.82L790,165.42c-9,1.68-16.77,3.14-19.8,4-1.72.52-2.59.63-2.67.69-4.7-1.7-17.21-21.42-17.21-33.48,0-10,4.55-18.39,9.94-18.39,4.38,0,9.1.76,9.1,2.25a10.65,10.65,0,0,1-1.81,1.92,18.17,18.17,0,0,0-5.52,8.17,12.71,12.71,0,0,0-.44,3.14c0,6.41,5.31,10.9,12.91,10.9,4.74,0,13.33-3.62,14-12.31a6.65,6.65,0,0,0,2.4.45c4.76,0,7.84-3.78,7.84-9.63,0-9.8-9.29-20.22-27.17-20.22h-.06l-7.56.78c2.48-2.51,7.45-5.2,16.15-5.2,9.14,0,20-7,20-12.88,0-3.83-3.77-5.16-9.43-7.17-.27-.1-.48-.19-.78-.28,5.08-3.5,16.62-8.61,37-8.61,27.93,0,56.19,10.38,56.19,30.25,0,14.86-21.76,28.07-39,28.07-.25,0-21.48-.11-21.48-10.11A1.87,1.87,0,0,1,824,116c.1.19.23.43.42.74,2.59,5,10.91,5.52,14.32,5.52,8.34,0,20.72-4.21,20.72-15.75,0-10.87-14.19-18.45-26.89-18.45-13,0-32.33,7.27-32.33,27.24,0,19.67,24,28.5,40.92,28.5,43.38,0,58-27.46,60.44-36.13,6.06,2.84,15.29,4.7,23.46,4.7,12.4,0,33.4-5.09,33.4-24.2,0-12.65-13-22.56-29.61-22.56-14.6,0-24.81,9.25-24.81,17.55a12.27,12.27,0,0,0,.88,4.53c-3.22-2.89-7.2-6.67-12.4-11.64-9.29-8.92-21.1-15.32-35-19l-58.92-.18-1.39.16C775.81,62.47,760.76,72.61,754,78.31a68.83,68.83,0,0,1-1-12.43c0-4.22-4.21-7.3-10-7.3-3.85,0-6.36,1.16-7.85,2.82-.42-.3-.82-.67-1.35-1.09a20.64,20.64,0,0,0-3.52-2.62l-1.3-.81H697.79l-1.26.66A34.92,34.92,0,0,0,690,62.12a33.55,33.55,0,0,0-6.53-4.56l-1.22-.68H651.67l-1.28.7a37.72,37.72,0,0,0-3.62,2.29c-1,.64-1.62,1-2.07,1.27-.38-.28-.8-.59-1.24-.89-2.25-1.62-4.08-2.91-6.53-2.91-12.15,0-12.15,8.83-12.15,16.91l.21,2.9A119.73,119.73,0,0,0,582.75,57l-58.92-.16-1.44.18c-13.89,3.65-25.69,10-35.5,19.43C466,96.46,465.07,97,454,97c-2.32,0-13.92-.42-13.92-9,0-1.95,2.63-6.88,8.82-6.88,4.32,0,6,1.44,6.17.87-.08.37-.29,1-.44,1.53a10.43,10.43,0,0,0-.65,3c0,3.81,2.84,7.65,9.2,7.65A10.84,10.84,0,0,0,474,83.13c0-8.3-10.17-17.55-24.8-17.55-16.11,0-27.8,9.5-27.8,22.6,0,19.09,21,24.18,33.42,24.18,8,0,17-1.79,23.29-4.7,1.66,9.29,13.56,36.15,56.58,36.15,17,0,40.92-8.84,40.92-28.5,0-20-19.33-27.24-32.3-27.24-12.74,0-27,7.58-27,18.44,0,11.77,13.08,15.57,19.42,15.57,5,0,10.3-1.42,13.35-3.47a9.68,9.68,0,0,1,3.52-1.44,2.28,2.28,0,0,1,.31,1.39c0,7.8-16.74,9.4-21.2,9.4-18.26,0-34.9-12.78-34.9-26.83,0-21.64,29.11-31.51,56.17-31.51,19.77,0,38.81,6.83,44.37,10.66-.93.13-1.84.24-2.32.26l-7.94-.94c-4.08,0-7.31,2.73-7.31,6.24,0,5,9.75,12.87,21.31,12.87,9.17,0,11.46,1.09,11.52,1.09a35.14,35.14,0,0,1,3,3.93l-8.29-.78c-18.18,0-29.93,8-29.93,20.24,0,5.84,3.08,9.62,7.86,9.62a6.73,6.73,0,0,0,2.4-.44c.71,8.69,9.31,12.3,14,12.3,7.65,0,13-4.48,13-10.88a16,16,0,0,0-.78-4.22c-1.11-3.28-3.49-5.5-5.22-7.1a10.42,10.42,0,0,0-1.87-1.55c.67-1,5.54-2.64,12.93-2.64,5.37,0,9.92,8.43,9.92,18.39,0,11.8-11.92,30.84-16.87,33.31-4.57-1-20.13-4.56-30.6-6.79,6.06-2.28,9.37-3.83,9.37-7.49,0-2.56,0-8.57-27.78-8.57-35.06,0-84.61,14.05-97,18.77,1.16-1.93,2.57-4.22,4.11-6.41,6-8.42,8.74-9.54,8.27-9.61l4.72.38c7.24,0,11.37-3.65,11.37-10,0-6.59-4.13-10.54-11.24-10.54l-10.32.37a42.15,42.15,0,0,1-6.3-.57c-2.82-6.27-9-12.37-15.25-12.37-3.89,0-25.6,4.46-25.6,12,0,4.66,5.94,7.13,15.81,11.21.3.11.57.24.89.37-12.51,3.43-18.05,5.31-18.05,10.14,0,4.23,4.8,7.31,11.37,7.31,4,0,8.4-1.13,12.34-2.12l1.41-.37c-3.18,4.7-8.48,11.73-12.17,16.54-1.56,2.12-3.22,4.13-4.84,6.09-5.86,7-11.88,14.28-11.88,25.19,0,15.83,11.46,27.76,30.77,33.57-19.31,5.81-30.77,17.75-30.77,33.59,0,10.9,6,18.17,11.86,25.18,1.62,1.95,3.28,3.95,4.88,6.14,3.69,4.85,9.14,12,12.28,16.51-.53-.13-1.08-.26-1.56-.39-3.94-1-8.38-2.12-12.34-2.12-6.49,0-11.37,3.14-11.37,7.3,0,4.82,5.58,6.81,18,9.91-2.31.46-5,1-8.23,1.58-8.21,1.46-11.12,6-11.12,9.72,0,7.14,9.46,12,18.45,8.1,20.78-9.11,33.36-9.83,40.85-10.27a33.05,33.05,0,0,0,7.92-1.05,9.61,9.61,0,0,0,6.55-9.17c0-7.86-6.47-7.84-17.71-7.82-.13,0-2.86-.92-9-9.61-1.56-2.19-3-4.48-4.15-6.42,12.53,4.74,62,18.78,97,18.78,27.78,0,27.78-6,27.78-8.56,0-4.1-4.11-5.64-11.67-7.82,3.46-.66,7-1.35,10.09-1.92,9-1.68,16.72-3.13,19.75-4,1.77-.5,2.59-.63,2.68-.68,4.71,1.69,17.22,21.39,17.22,33.47,0,10-4.55,18.39-9.92,18.39-4.38,0-9.09-.75-9.11-2.25a10.34,10.34,0,0,1,1.81-1.91,18.25,18.25,0,0,0,5.49-8,14,14,0,0,0,.51-3.32c0-6.42-5.33-10.9-13-10.9-4.72,0-13.33,3.61-14,12.3-3.87-1.46-10.23.37-10.23,9.21,0,9.79,9.31,20.21,27.14,20.21h.07l7.51-.76c-2.5,2.51-7.45,5.21-16.15,5.21-9.14,0-19.94,7-19.94,12.87,0,3.84,3.75,5.17,9.41,7.18.26.09.49.18.78.27-5,3.49-16.59,8.62-37,8.62-27.9,0-56.16-10.39-56.16-30.25,0-14.87,21.75-28.08,38.93-28.08.24,0,21.46.11,21.46,10.11a1.84,1.84,0,0,1-1.32,1.81,4.71,4.71,0,0,1-.4-.76c-2.68-5-10.91-5.48-14.34-5.48-8.34,0-20.75,4.21-20.75,15.76,0,10.86,14.2,18.44,26.94,18.44,13,0,32.3-7.27,32.3-27.24,0-19.66-23.92-28.5-40.92-28.5-43.38,0-58,27.48-60.43,36.15-6.05-2.84-15.27-4.7-23.46-4.7-12.34-.07-33.36,5-33.36,24.13,0,12.65,13,22.55,29.65,22.55,14.59,0,24.79-9.24,24.79-17.54a11.62,11.62,0,0,0-.93-4.57c3.22,2.89,7.22,6.69,12.42,11.67,9.35,8.93,21.15,15.33,35,19l59,.19,1.39-.17a115.33,115.33,0,0,0,11.73-3.8v77.56H654.1v452.8h63.17V881.11h55.39v62.53h163.2V911.12H887V877.33h48.9v-59H887V784.5h48.9V752H772.66v58.39H717.27V490.84h59.66V412l-2.61-3.36a119.38,119.38,0,0,0,22.89,8.48l59.64.17.69-.19c13.92-3.67,25.71-10.05,35.57-19.51,20.81-19.86,21.71-20.44,32.77-20.44,2.31,0,13.94.43,13.94,9,0,2-2.63,6.88-8.83,6.88-4.21,0-5.91-1.49-6.17-.88.09-.37.28-1,.45-1.54a10.44,10.44,0,0,0,.63-3c0-3.82-2.84-7.65-9.18-7.65A10.86,10.86,0,0,0,905.85,391c0,8.3,10.15,17.54,24.81,17.54,16.09,0,27.75-9.5,27.75-22.57,0-19.09-21-24.19-33.4-24.19-8,0-17,1.79-23.27,4.71-1.68-9.3-13.58-36.14-56.6-36.14-17,0-40.94,8.84-40.94,28.5,0,20,19.35,27.24,32.33,27.24,12.72,0,26.91-7.58,26.91-18.44,0-11.77-13.06-15.57-19.42-15.57-4.95,0-10.27,1.42-13.33,3.47A10.59,10.59,0,0,1,827.2,357a2.12,2.12,0,0,1-.34-1.39c0-7.8,16.7-9.4,21.18-9.4,18.28,0,34.92,12.78,34.92,26.83,0,21.64-29.12,31.51-56.18,31.51-19.78,0-38.82-6.83-44.33-10.66.9-.15,1.81-.26,2.27-.3l7.94.94c4.09,0,7.31-2.73,7.31-6.23,0-5-9.75-12.88-21.31-12.88-9,0-11.4-1.05-11.52-1.07a43.22,43.22,0,0,1-3-3.94l8.34.75c18.17,0,29.92-7.95,29.92-20.23,0-5.85-3.07-9.63-7.88-9.63a7,7,0,0,0-2.4.44c-.69-8.67-9.26-12.3-13.94-12.3-7.64,0-13,4.48-13,10.88a17.16,17.16,0,0,0,.78,4.23c1.14,3.28,3.49,5.49,5.22,7.12a11.12,11.12,0,0,0,1.9,1.55c-.68.94-5.56,2.62-12.93,2.62-5.39,0-9.94-8.43-9.94-18.39,0-11.79,11.92-30.83,16.89-33.32,4.54,1,20.13,4.56,30.59,6.81-6.06,2.27-9.37,3.84-9.37,7.47,0,2.56,0,8.58,27.78,8.58,35.12,0,84.59-14.06,96.95-18.78-1.16,1.94-2.55,4.21-4.1,6.42-5.75,8.21-8.68,9.5-8.3,9.61l-4.7-.37c-7.22,0-11.35,3.65-11.35,10,0,6.58,4.13,10.53,11.21,10.53l10.31-.37a42.64,42.64,0,0,1,6.3.57c2.82,6.26,9,12.36,15.27,12.36,3.92,0,25.58-4.46,25.58-12,0-4.67-5.91-7.14-15.81-11.21l-.88-.37c12.55-3.45,18-5.33,18-10.17,0-4.22-4.8-7.3-11.39-7.3-3.94,0-8.36,1.12-12.3,2.12l-1.43.37c3.16-4.69,8.51-11.71,12.19-16.55,1.54-2.13,3.22-4.13,4.82-6.1,5.84-7,11.86-14.28,11.86-25.18,0-15.82-11.46-27.76-30.77-33.57C947,231.27,958.5,219.32,958.5,203.48ZM914.88,94.21c6.34,0,9.23-3.84,9.23-7.65a11.88,11.88,0,0,0-.68-3,2.06,2.06,0,0,0-.31-.77c.57-.56,2.42-1.64,6-1.64,5.39,0,10.74,5.05,10.74,6.88,0,8.61-11.65,9-13.94,9-5.64,0-8.61-.15-13-3A10.31,10.31,0,0,0,914.88,94.21ZM465.05,379.94c-6.36,0-9.2,3.83-9.2,7.65a10.76,10.76,0,0,0,.65,3,2.58,2.58,0,0,0,.32.8c-.57.55-2.4,1.64-6,1.64-5.52,0-10.72-5-10.72-6.88,0-8.61,11.6-9.06,13.92-9.06,5.64,0,8.63.15,13.05,3A9.86,9.86,0,0,0,465.05,379.94Zm307.6,450.17h48.5v-41h35.68v41h45.23v31.27H856.83v41H821.15v-41h-48.5ZM714,69.59c2.59,0,16.66,3.76,21.36,21.63a55.84,55.84,0,0,1,.25,7c0,2.49.06,4.76.17,5.24-.17,1.57-2.86,8-3.92,10.44-.55,1.42-1,2.56-1.32,3.28-.62,1.92-1.14,3.45-1.48,4.85a18.64,18.64,0,0,0-3.37-6.78,43.79,43.79,0,0,0-3.49-3.9c-.95-1-2.51-2.6-3.75-4h0c2.93-1.39,6.91-3.28,6.91-7.21,0-3-2.47-5.48-10.91-12.29-1.2-1-2.19-1.77-2.55-2.1s-1.12-1-2-1.72c-4.91-4-6-5.79-6.07-6.53C703.79,73.88,706.45,69.59,714,69.59ZM664.12,70c6.19,0,9.9,2.5,9.92,6.58-.4,1.64-5.46,5.53-7.58,7.21-1.58,1.24-3,2.34-3.86,3.14-6.57,5.9-6.86,10.77-6.86,11.69,0,3.27,2.27,5.76,6.32,6.4,1.28.11,3.79.32,5.93.57a22.38,22.38,0,0,1-6.33,3.91c-4.83,1.46-7.82,5-7.82,9.23s3.48,8.91,11.08,8.91c8.93,0,19.37-8.36,25.5-14.39,8.59,7.32,24,17.82,31.88,17.82a6.93,6.93,0,0,0,5.73-2.6c-.08,1.67-.15,3.65-.17,6.21-11.6-3.87-24.59-2.42-34.47,3.84-5.92-6.64-15.37-9.67-23.35-9.67-9.16,0-14.34,2.55-17.86,4.69-.44-2.51-1.1-5.68-1.9-9.59-.94-4.62-2.25-10.9-2.25-12.42C648,90.83,653,70,664.12,70Zm7,82.52v.2a11.94,11.94,0,0,0-7.22-2.12,18.34,18.34,0,0,0-4.49.55,17.72,17.72,0,0,1,6.36-1.22C668.16,149.89,671.09,150.34,671.09,152.48Zm-21.25,5.46a15.63,15.63,0,0,0-2.19,8.19c0,9.51,8.05,15.91,20,15.91,8.24,0,15.65-2.36,21.21-6.64,6.11,5.41,14.17,6.11,17.88,6.11,9,0,22.36-4.15,22.36-15.57.05-11.95-14.84-14.15-20.72-7.89.23-2.44,5.27-6,9.65-6,16,0,22.17,23.7,22.51,27.39a3.44,3.44,0,0,1-1.31.78c-21.1,10.09-38.68,25-48.79,37.18-10.89-13.46-29.88-27.81-49.82-37.24-.93-.42-1.14-.7-1.18-1.09C639.44,174.67,643.31,165,649.84,157.94ZM444.71,212.27c.27-1.67,6.86-12.74,27.8-12.78l14.11.52c6.44.29,9.43,1.77,12.95,4.57,7.37,5.92,14.93,8.91,22.53,8.91,9.94,0,24.26-6.51,24.26-18.28,0-6.07-3.94-15.71-27.8-18.18,24.56.22,65.7,10.62,68.61,15.42-2.38,7.48-54.27,32.48-103.27,32.48C456.5,224.93,444.71,215.21,444.71,212.27Zm117.4,33.85c-5.79-.76-19.29-3.93-28.6-6.12-5.07-1.17-9.66-2.25-12.86-2.92,3.24-.68,7.94-1.77,13.1-3,8.88-2.08,21.6-5.07,28.3-5.92a28,28,0,0,0-1.79,8.93A27.5,27.5,0,0,0,562.11,246.12Zm-43.76,51c18.09-1.88,28.56-8.11,28.56-17.48,0-6.22-11.21-19.89-23.21-19.89A34.64,34.64,0,0,0,503,267.66c-3.35,2.83-8.83,5.17-15.16,6.53a85.18,85.18,0,0,1-13.57,1.18c-9.33,0-29.82-2.82-29.82-11.21,0-4.69,10-15,39.47-15,49,0,100.89,25,103.33,31.76C584.26,286.5,542.82,297,518.35,297.1Zm93.33-28c-9,0-21.2-8.87-25.29-13.15a22.88,22.88,0,0,0,10-18.9c0-7.53-3.52-14.11-10-18.82,4.11-4.28,16.24-13.15,25.29-13.15,10.85,0,28.28,18.24,33.82,32.1C636.45,254.92,621.56,269.08,611.68,269.08Zm35.89,121.26a34.16,34.16,0,0,1-2.93-7.42,61,61,0,0,1-.27-7.12c0-2.43-.07-4.64-.15-5.16.17-1.55,2.69-7.64,3.79-10.24.61-1.51,1.16-2.75,1.39-3.47.63-1.91,1.16-3.44,1.49-4.85a19.85,19.85,0,0,0,3.37,6.79,41.69,41.69,0,0,0,3.46,3.82c1,1,2.57,2.64,3.81,4h0c-2.91,1.38-6.89,3.28-6.89,7.21,0,3,2.42,5.44,10.78,12.23,1.25,1,2.24,1.81,2.64,2.16s1.11,1,2,1.71c4.92,4,6,5.8,6.08,6.53a7.4,7.4,0,0,1-3.18,5.92ZM685.68,468c-11.81,0-21.39-8.39-21.39-18.74s9.58-18.74,21.39-18.74,21.42,8.39,21.42,18.74S697.48,468,685.68,468ZM722,401.39l-7.39,2.69c-5.43-.33-8.72-2.69-8.74-6.46.42-1.64,5.47-5.53,7.58-7.21,1.58-1.23,3-2.34,3.85-3.13,6.57-5.91,6.87-10.78,6.87-11.7,0-3.24-2.25-5.73-6.32-6.4-1.3-.11-3.81-.31-6-.57a22.66,22.66,0,0,1,6.4-3.93c4.78-1.46,7.75-5,7.75-9.22s-3.45-8.91-11-8.91c-9,0-19.42,8.36-25.52,14.39-8.6-7.33-24-17.82-31.87-17.82a7.07,7.07,0,0,0-5.75,2.58c.11-1.68.15-3.65.17-6.2a41.1,41.1,0,0,0,34.48-3.83c5.91,6.64,15.37,9.66,23.37,9.66,9.16,0,14.34-2.56,17.84-4.68.44,2.49,1.11,5.68,1.89,9.59,1,4.61,2.26,10.9,2.26,12.41C731.91,378.9,728.77,395.15,722,401.39Zm-13.16-79.72v-.19c2.72,2,7.45,2.64,11.75,1.54a17.84,17.84,0,0,1-6.4,1.21C711.8,324.23,708.87,323.79,708.87,321.67Zm21.27-5.46a15.71,15.71,0,0,0,2.19-8.21c0-9.52-8.05-15.92-19.94-15.92-8.28,0-15.67,2.36-21.21,6.64-6.11-5.4-14.17-6.1-17.9-6.1-9,0-22.39,4.15-22.39,15.57,0,11.91,14.77,14.18,20.73,7.89-.26,2.43-5.27,6-9.65,6-15.94,0-22.15-23.7-22.49-27.39a3.82,3.82,0,0,1,1.26-.75c21.08-10.09,38.69-25,48.82-37.2,10.88,13.48,29.86,27.81,49.82,37.25,1,.41,1.16.7,1.2,1.09C740.54,299.46,736.64,309.2,730.14,316.21Zm38.16-47.13c-10.6,0-28.37-18.39-33.85-32.09,9.08-17.78,24-32,33.85-32,9.05,0,21.18,8.88,25.25,13.15a22.74,22.74,0,0,0-10,18.89c0,7.51,3.5,14.11,10,18.83C789.48,260.21,777.31,269.08,768.3,269.08Zm167-7.21c-.3,1.68-6.91,12.78-27.67,12.78l-14.22-.51c-6.48-.3-9.45-1.79-13-4.6-7.41-5.9-15-8.89-22.53-8.89-9.92,0-24.22,6.52-24.22,18.28,0,6.07,3.94,15.72,27.76,18.19-24.52-.22-65.69-10.62-68.59-15.42,2.38-7.49,54.24-32.48,103.25-32.48C923.43,249.22,935.25,258.94,935.25,261.87ZM817.87,228c5.79.75,19.29,3.92,28.62,6.1,5,1.18,9.62,2.25,12.8,2.93-3.22.69-7.92,1.77-13.06,3-8.93,2.09-21.62,5.07-28.34,5.92a23,23,0,0,0,0-17.94Zm78.19-3.1c-49,0-100.87-25-103.32-31.76,3-5.52,44.38-16,68.89-16.14-18.09,1.88-28.56,8.11-28.56,17.48,0,6.22,11.21,19.89,23.23,19.89A34.53,34.53,0,0,0,877,206.46c3.33-2.84,8.83-5.16,15.16-6.53a85.15,85.15,0,0,1,13.59-1.18c9.33,0,29.82,2.83,29.82,11.22C935.54,214.65,925.58,224.93,896.06,224.93Z" transform="translate(-421.44 -56.88)"/></svg>