<svg xmlns="http://www.w3.org/2000/svg" viewBox="0 0 508.84 962.33"><title>key2</title><path d="M907.43,269.76c0-80.92-65.82-146.75-146.75-146.75a144.66,144.66,0,0,0-15.77.88c3.75-13.42,3-26.22-14-26.22H691.26a35,35,0,0,0-.78-4.79c-6.19-25.34-12.8-52.59-16.81-69s-36.39-17.9-42.06,0-13.78,56-16.81,69.87a20.75,20.75,0,0,0-.29,3.93h-40c-19.39,0-20.39,12.66-16.15,26-4.34-.39-8.68-.68-13.06-.68-80.92,0-146.76,65.83-146.76,146.75s65.84,146.76,146.76,146.76A145.47,145.47,0,0,0,592,408.71c-4,22.44-6.22,50.62,7.82,50.62h21.64l-16.24,62.16H631.7V973.33h86V943.44h49.68v29.89h86.08V905.68h-28.9V856h28.9V783H767.41v35.7H717.73V783h-44.1V521.47h27.1l-16.24-62.16h17.24c15.45,0,13-28.25,8.25-52.14a145.14,145.14,0,0,0,50.68,9.35C841.61,416.52,907.43,350.67,907.43,269.76ZM664.32,339,653,323.31,641.64,339a118.79,118.79,0,1,1,0-138.57L653,216.2l11.35-15.73a118.81,118.81,0,1,1,0,138.57Z" transform="translate(-398.59 -11)"/></svg>