<svg xmlns="http://www.w3.org/2000/svg" viewBox="0 0 603.59 971.86"><title>key3</title><path id= "batman-path" d="M962,243.65C962,120.13,826.92,20,660.22,20S358.45,120.13,358.45,243.65c0,101,90.36,186.27,214.41,214v48.26h27.21v438.3l39.47,25.87V505.94h13.61V978.27l15.67,13.59,72.82-72.12V891.12L719.85,883l21.79-16.34v-15L694,813.53,734.86,770l-15-19,15-12.27V718.27L706.26,687,719.87,657,694,633.89V604l40.84-38.11v-59.9h30V453.23C879.88,421.67,962,339.89,962,243.65ZM660.24,71.91c40.51,0,73.35,31,73.35,69.23s-32.86,69.24-73.35,69.24-73.35-31-73.35-69.24S619.74,71.91,660.24,71.91Z" transform="translate(-358.45 -20)"/></svg>