<svg xmlns="http://www.w3.org/2000/svg" viewBox="0 0 377.09 980.49"><title>key4</title><path d="M908,836.35v-28.2H725.55v-217h17.31A14.13,14.13,0,0,0,757,577a14,14,0,0,0-11.1-13.51A14,14,0,0,0,757,549.94a14.13,14.13,0,0,0-14.13-14.15H725.55V509.06h17.31A14.13,14.13,0,0,0,752.92,485h5.77a19,19,0,0,0,0-38.08h-3.78a13.7,13.7,0,0,0,2.08-7,13.92,13.92,0,0,0-6.93-11.87c65.65-25.61,108.14-97.18,108.14-191.55,0-118.86-67.26-201.88-163.64-201.88s-163.65,83-163.65,201.9c0,99.8,47.53,174.1,119.74,195.46a13.75,13.75,0,0,0-2.78,7.94,13.6,13.6,0,0,0,2.12,7h-.18a19,19,0,1,0,0,38.08H652a14.11,14.11,0,0,0,10,24.05h15.75v26.77H662a14,14,0,0,0-3,27.66A14,14,0,0,0,647.89,577,14.12,14.12,0,0,0,662,591.15h15.75v424H908V986.88H865.37v-58.4H908v-28.2H865.37V836.35ZM588.26,236.54C588.26,164.59,621.13,92,694.56,92s106.3,72.61,106.3,144.56S768,381.1,694.56,381.1,588.26,308.49,588.26,236.54Z" transform="translate(-530.91 -34.64)"/></svg>