<svg xmlns="http://www.w3.org/2000/svg" viewBox="0 0 503.22 941.52"><title>key5</title><path d="M829.54,896.25q-1.24-197.58-2.49-395.16C924.23,469.56,994.48,377.9,993.81,270.4,993,137.56,884.2,30.16,751.38,31S511.14,140.55,512,273.43c.63,103.24,66.58,190.83,158.22,224.46q.42,66.48.83,133l-120.22.74.41,62.7,120.21-.73q.18,30.06.41,60.11L490.6,754.87l.4,62.74,181.21-1.15c.1,16.45.22,33,.33,49.46l-120.22.77.41,62.73,126.4-.81C708.21,996.61,830.09,985.48,829.54,896.25ZM606.07,272.81C605.55,191.86,671,125.58,752,125.07S899.18,190,899.73,271s-65,147.23-145.92,147.75S606.56,353.76,606.07,272.81Z" transform="translate(-490.6 -31)"/></svg>